<svg xmlns="http://www.w3.org/2000/svg" xmlns:xlink="http://www.w3.org/1999/xlink" width="500" zoomAndPan="magnify" viewBox="0 0 375 374.999991" height="500" preserveAspectRatio="xMidYMid meet" version="1.0"><defs><g/><clipPath id="905e42ad4a"><path d="M 29.042969 3.113281 L 345.957031 3.113281 L 345.957031 372 L 29.042969 372 Z M 29.042969 3.113281 " clip-rule="nonzero"/></clipPath><clipPath id="be69ae4192"><path d="M 187.5 3.113281 L 345.957031 95.308594 L 345.957031 279.691406 L 187.5 371.886719 L 29.042969 279.691406 L 29.042969 95.308594 Z M 187.5 3.113281 " clip-rule="nonzero"/></clipPath></defs><g clip-path="url(#905e42ad4a)"><g clip-path="url(#be69ae4192)"><path fill="#022794" d="M 29.042969 3.113281 L 345.957031 3.113281 L 345.957031 372.019531 L 29.042969 372.019531 Z M 29.042969 3.113281 " fill-opacity="1" fill-rule="nonzero"/></g></g><g fill="#ffffff" fill-opacity="0.3294"><g transform="translate(60.703884, 275.097116)"><g><path d="M 0 -0.9375 C 2.8125 -11.875 7.109375 -20.289062 12.890625 -26.1875 C 18.671875 -32.082031 25.503906 -35.03125 33.390625 -35.03125 C 37.140625 -35.03125 40.789062 -34.304688 44.34375 -32.859375 C 47.894531 -31.421875 51.585938 -29.175781 55.421875 -26.125 L 78.5 -78.734375 L 41.234375 -78.734375 C 36.472656 -78.734375 32.644531 -78.300781 29.75 -77.4375 C 26.863281 -76.582031 23.898438 -75.257812 20.859375 -73.46875 C 24.210938 -77.289062 27.316406 -81.40625 30.171875 -85.8125 C 33.023438 -90.226562 35.78125 -95.054688 38.4375 -100.296875 C 39.832031 -99.117188 41.234375 -98.253906 42.640625 -97.703125 C 44.046875 -97.160156 45.6875 -96.890625 47.5625 -96.890625 L 68.1875 -96.890625 L 55.890625 -122.3125 C 52.523438 -129.425781 48.753906 -134.625 44.578125 -137.90625 C 40.398438 -141.1875 35.539062 -142.828125 30 -142.828125 C 24.601562 -142.828125 19.929688 -141.320312 15.984375 -138.3125 C 12.046875 -135.300781 8.550781 -130.554688 5.5 -124.078125 C 5.1875 -126.023438 4.953125 -127.914062 4.796875 -129.75 C 4.640625 -131.59375 4.5625 -133.296875 4.5625 -134.859375 C 4.5625 -145.085938 7.800781 -153.363281 14.28125 -159.6875 C 20.769531 -166.019531 29.363281 -169.1875 40.0625 -169.1875 C 48.5 -169.1875 55.878906 -166.921875 62.203125 -162.390625 C 68.535156 -157.859375 73.539062 -151.257812 77.21875 -142.59375 L 92.09375 -107.5625 L 119.984375 -169.1875 C 122.316406 -166.21875 125.707031 -163.796875 130.15625 -161.921875 C 134.613281 -160.046875 139.148438 -159.109375 143.765625 -159.109375 C 146.578125 -159.109375 149.113281 -159.59375 151.375 -160.5625 C 153.644531 -161.539062 155.832031 -163.125 157.9375 -165.3125 L 157.9375 -164.140625 C 157.9375 -155.003906 155.613281 -147.757812 150.96875 -142.40625 C 146.320312 -137.0625 140.050781 -134.390625 132.15625 -134.390625 C 129.425781 -134.390625 126.5 -134.835938 123.375 -135.734375 C 120.25 -136.628906 116.734375 -138.015625 112.828125 -139.890625 L 94.3125 -96.890625 L 136.03125 -96.890625 C 138.914062 -96.890625 141.410156 -97.101562 143.515625 -97.53125 C 145.628906 -97.96875 147.664062 -98.613281 149.625 -99.46875 C 146.726562 -95.875 144.144531 -92.066406 141.875 -88.046875 C 139.613281 -84.023438 137.664062 -79.789062 136.03125 -75.34375 C 134.539062 -76.507812 132.9375 -77.363281 131.21875 -77.90625 C 129.5 -78.457031 127.507812 -78.734375 125.25 -78.734375 L 104.859375 -78.734375 L 124.546875 -40.53125 C 127.585938 -34.757812 131.019531 -30.40625 134.84375 -27.46875 C 138.675781 -24.539062 142.820312 -23.078125 147.28125 -23.078125 C 149.539062 -23.078125 151.628906 -23.488281 153.546875 -24.3125 C 155.460938 -25.132812 157.394531 -26.484375 159.34375 -28.359375 L 161.921875 -25.65625 C 157.941406 -20.1875 154.289062 -14.816406 150.96875 -9.546875 C 147.644531 -4.273438 144.65625 0.816406 142 5.734375 C 141.53125 5.734375 140.863281 5.769531 140 5.84375 C 139.144531 5.925781 138.484375 5.96875 138.015625 5.96875 C 128.878906 5.96875 121.457031 3.550781 115.75 -1.28125 C 110.050781 -6.125 104.351562 -15.304688 98.65625 -28.828125 L 81.3125 -69.359375 L 47.21875 6.671875 C 41.90625 1.992188 36.941406 -1.316406 32.328125 -3.265625 C 27.722656 -5.222656 22.609375 -6.203125 16.984375 -6.203125 C 13.785156 -6.203125 10.78125 -5.769531 7.96875 -4.90625 C 5.15625 -4.050781 2.5 -2.726562 0 -0.9375 Z M 0 -0.9375 "/></g></g><g transform="translate(222.860963, 275.097116)"><g><path d="M 8.203125 -4.796875 C 8.898438 -8.859375 10.285156 -12.351562 12.359375 -15.28125 C 14.429688 -18.21875 17.265625 -20.660156 20.859375 -22.609375 L 20.859375 -76.984375 C 20.859375 -83.066406 19.507812 -87.535156 16.8125 -90.390625 C 14.113281 -93.242188 9.71875 -94.863281 3.625 -95.25 L 3.625 -98.421875 C 8.78125 -100.921875 13.625 -103.769531 18.15625 -106.96875 C 22.6875 -110.175781 27.101562 -113.890625 31.40625 -118.109375 C 37.332031 -114.585938 41.582031 -110.675781 44.15625 -106.375 C 46.738281 -102.082031 48.1875 -96.65625 48.5 -90.09375 L 71.9375 -118.109375 C 75.6875 -112.171875 79.140625 -107.875 82.296875 -105.21875 C 85.460938 -102.5625 88.648438 -101.234375 91.859375 -101.234375 C 92.484375 -101.234375 93.34375 -101.328125 94.4375 -101.515625 C 95.53125 -101.710938 96.894531 -102.007812 98.53125 -102.40625 C 97.207031 -94.820312 94.375 -88.863281 90.03125 -84.53125 C 85.695312 -80.195312 80.488281 -78.03125 74.40625 -78.03125 C 69.945312 -78.03125 66.097656 -79.257812 62.859375 -81.71875 C 59.617188 -84.175781 57.21875 -87.710938 55.65625 -92.328125 L 48.5 -84.46875 L 48.5 -26.125 C 51.3125 -25.269531 54.082031 -23.941406 56.8125 -22.140625 C 59.550781 -20.347656 62.445312 -17.925781 65.5 -14.875 L 74.640625 -20.15625 L 76.75 -16.046875 C 68.382812 -11.753906 61.625 -8.003906 56.46875 -4.796875 C 51.3125 -1.597656 46.976562 1.597656 43.46875 4.796875 C 39.5625 0.503906 35.789062 -2.59375 32.15625 -4.5 C 28.53125 -6.414062 24.6875 -7.375 20.625 -7.375 C 18.820312 -7.375 16.882812 -7.160156 14.8125 -6.734375 C 12.75 -6.304688 10.546875 -5.660156 8.203125 -4.796875 Z M 8.203125 -4.796875 "/></g></g></g><g fill="#ffffff" fill-opacity="1"><g transform="translate(58.086362, 270.374982)"><g><path d="M 0 -0.9375 C 2.8125 -11.875 7.109375 -20.289062 12.890625 -26.1875 C 18.671875 -32.082031 25.503906 -35.03125 33.390625 -35.03125 C 37.140625 -35.03125 40.789062 -34.304688 44.34375 -32.859375 C 47.894531 -31.421875 51.585938 -29.175781 55.421875 -26.125 L 78.5 -78.734375 L 41.234375 -78.734375 C 36.472656 -78.734375 32.644531 -78.300781 29.75 -77.4375 C 26.863281 -76.582031 23.898438 -75.257812 20.859375 -73.46875 C 24.210938 -77.289062 27.316406 -81.40625 30.171875 -85.8125 C 33.023438 -90.226562 35.78125 -95.054688 38.4375 -100.296875 C 39.832031 -99.117188 41.234375 -98.253906 42.640625 -97.703125 C 44.046875 -97.160156 45.6875 -96.890625 47.5625 -96.890625 L 68.1875 -96.890625 L 55.890625 -122.3125 C 52.523438 -129.425781 48.753906 -134.625 44.578125 -137.90625 C 40.398438 -141.1875 35.539062 -142.828125 30 -142.828125 C 24.601562 -142.828125 19.929688 -141.320312 15.984375 -138.3125 C 12.046875 -135.300781 8.550781 -130.554688 5.5 -124.078125 C 5.1875 -126.023438 4.953125 -127.914062 4.796875 -129.75 C 4.640625 -131.59375 4.5625 -133.296875 4.5625 -134.859375 C 4.5625 -145.085938 7.800781 -153.363281 14.28125 -159.6875 C 20.769531 -166.019531 29.363281 -169.1875 40.0625 -169.1875 C 48.5 -169.1875 55.878906 -166.921875 62.203125 -162.390625 C 68.535156 -157.859375 73.539062 -151.257812 77.21875 -142.59375 L 92.09375 -107.5625 L 119.984375 -169.1875 C 122.316406 -166.21875 125.707031 -163.796875 130.15625 -161.921875 C 134.613281 -160.046875 139.148438 -159.109375 143.765625 -159.109375 C 146.578125 -159.109375 149.113281 -159.59375 151.375 -160.5625 C 153.644531 -161.539062 155.832031 -163.125 157.9375 -165.3125 L 157.9375 -164.140625 C 157.9375 -155.003906 155.613281 -147.757812 150.96875 -142.40625 C 146.320312 -137.0625 140.050781 -134.390625 132.15625 -134.390625 C 129.425781 -134.390625 126.5 -134.835938 123.375 -135.734375 C 120.25 -136.628906 116.734375 -138.015625 112.828125 -139.890625 L 94.3125 -96.890625 L 136.03125 -96.890625 C 138.914062 -96.890625 141.410156 -97.101562 143.515625 -97.53125 C 145.628906 -97.96875 147.664062 -98.613281 149.625 -99.46875 C 146.726562 -95.875 144.144531 -92.066406 141.875 -88.046875 C 139.613281 -84.023438 137.664062 -79.789062 136.03125 -75.34375 C 134.539062 -76.507812 132.9375 -77.363281 131.21875 -77.90625 C 129.5 -78.457031 127.507812 -78.734375 125.25 -78.734375 L 104.859375 -78.734375 L 124.546875 -40.53125 C 127.585938 -34.757812 131.019531 -30.40625 134.84375 -27.46875 C 138.675781 -24.539062 142.820312 -23.078125 147.28125 -23.078125 C 149.539062 -23.078125 151.628906 -23.488281 153.546875 -24.3125 C 155.460938 -25.132812 157.394531 -26.484375 159.34375 -28.359375 L 161.921875 -25.65625 C 157.941406 -20.1875 154.289062 -14.816406 150.96875 -9.546875 C 147.644531 -4.273438 144.65625 0.816406 142 5.734375 C 141.53125 5.734375 140.863281 5.769531 140 5.84375 C 139.144531 5.925781 138.484375 5.96875 138.015625 5.96875 C 128.878906 5.96875 121.457031 3.550781 115.75 -1.28125 C 110.050781 -6.125 104.351562 -15.304688 98.65625 -28.828125 L 81.3125 -69.359375 L 47.21875 6.671875 C 41.90625 1.992188 36.941406 -1.316406 32.328125 -3.265625 C 27.722656 -5.222656 22.609375 -6.203125 16.984375 -6.203125 C 13.785156 -6.203125 10.78125 -5.769531 7.96875 -4.90625 C 5.15625 -4.050781 2.5 -2.726562 0 -0.9375 Z M 0 -0.9375 "/></g></g><g transform="translate(220.243441, 270.374982)"><g><path d="M 8.203125 -4.796875 C 8.898438 -8.859375 10.285156 -12.351562 12.359375 -15.28125 C 14.429688 -18.21875 17.265625 -20.660156 20.859375 -22.609375 L 20.859375 -76.984375 C 20.859375 -83.066406 19.507812 -87.535156 16.8125 -90.390625 C 14.113281 -93.242188 9.71875 -94.863281 3.625 -95.25 L 3.625 -98.421875 C 8.78125 -100.921875 13.625 -103.769531 18.15625 -106.96875 C 22.6875 -110.175781 27.101562 -113.890625 31.40625 -118.109375 C 37.332031 -114.585938 41.582031 -110.675781 44.15625 -106.375 C 46.738281 -102.082031 48.1875 -96.65625 48.5 -90.09375 L 71.9375 -118.109375 C 75.6875 -112.171875 79.140625 -107.875 82.296875 -105.21875 C 85.460938 -102.5625 88.648438 -101.234375 91.859375 -101.234375 C 92.484375 -101.234375 93.34375 -101.328125 94.4375 -101.515625 C 95.53125 -101.710938 96.894531 -102.007812 98.53125 -102.40625 C 97.207031 -94.820312 94.375 -88.863281 90.03125 -84.53125 C 85.695312 -80.195312 80.488281 -78.03125 74.40625 -78.03125 C 69.945312 -78.03125 66.097656 -79.257812 62.859375 -81.71875 C 59.617188 -84.175781 57.21875 -87.710938 55.65625 -92.328125 L 48.5 -84.46875 L 48.5 -26.125 C 51.3125 -25.269531 54.082031 -23.941406 56.8125 -22.140625 C 59.550781 -20.347656 62.445312 -17.925781 65.5 -14.875 L 74.640625 -20.15625 L 76.75 -16.046875 C 68.382812 -11.753906 61.625 -8.003906 56.46875 -4.796875 C 51.3125 -1.597656 46.976562 1.597656 43.46875 4.796875 C 39.5625 0.503906 35.789062 -2.59375 32.15625 -4.5 C 28.53125 -6.414062 24.6875 -7.375 20.625 -7.375 C 18.820312 -7.375 16.882812 -7.160156 14.8125 -6.734375 C 12.75 -6.304688 10.546875 -5.660156 8.203125 -4.796875 Z M 8.203125 -4.796875 "/></g></g></g></svg>